<?xml version="1.0" encoding="UTF-8" standalone="no"?> <!-- Created with Vectornator Pro for iOS (http://vectornator.io/) --><!DOCTYPE svg PUBLIC "-//W3C//DTD SVG 1.1//EN" "http://www.w3.org/Graphics/SVG/1.1/DTD/svg11.dtd">
<svg style="fill-rule:evenodd;clip-rule:evenodd;stroke-linecap:round;stroke-linejoin:round;" xmlns:vectornator="http://vectornator.io" xmlns:xlink="http://www.w3.org/1999/xlink" xmlns="http://www.w3.org/2000/svg" xml:space="preserve" version="1.1" viewBox="0 0 99 99">
<metadata>
<vectornator:setting key="Units" value="Points"/>
<vectornator:setting key="GridSpacing" value="36"/>
<vectornator:setting key="RulersVisible" value="1"/>
<vectornator:setting key="DynamicGuides" value="1"/>
</metadata>
<defs/>
<g id="Untitled" vectornator:layerName="Untitled">
<g opacity="1">
<path d="M69.4295+9.76516L68.0705+11.2418L68.0705+16.2886L82.4645+16.2886L82.4645+11.4881L78.2665+12.308C78.3065+12.1439+78.3865+11.9797+78.4265+11.8165L75.5475+9.02426L69.4295+9.76516L69.4295+9.76516ZM73.2265+9.88728C73.5865+9.88728+73.9065+9.96937+74.1465+10.0935C74.4255+10.2577+74.5465+10.4619+74.5465+10.6672C74.5465+10.8734+74.4255+11.0777+74.1465+11.2008C73.9065+11.365+73.5865+11.4471+73.2265+11.4471C72.8675+11.4471+72.5465+11.365+72.2675+11.2008C72.0275+11.0787+71.9075+10.8745+71.9075+10.6672C71.9075+10.463+72.0275+10.2588+72.2675+10.0935C72.5475+9.96937+72.8675+9.88728+73.2265+9.88728L73.2265+9.88728ZM71.7075+13.2521C71.9075+13.0479+72.1875+12.9238+72.4675+12.9238C72.7475+12.9238+72.9885+13.0479+73.1885+13.2521C73.3875+13.4563+73.5075+13.7447+73.5075+14.032C73.5075+14.3194+73.3875+14.6077+73.1885+14.8119C72.9885+15.0161+72.7485+15.1403+72.4675+15.1403C72.1885+15.1403+71.9075+15.0161+71.7075+14.8119C71.5085+14.6077+71.4285+14.3194+71.4285+14.032C71.4285+13.7447+71.5085+13.4563+71.7075+13.2521L71.7075+13.2521ZM77.7455+13.7858C77.9455+13.5815+78.2245+13.4994+78.5455+13.4994C78.8645+13.4994+79.1455+13.5815+79.3445+13.7858C79.5445+13.99+79.6645+14.2783+79.6645+14.5656C79.6645+14.853+79.5445+15.0993+79.3445+15.3055C79.1455+15.5097+78.8655+15.6319+78.5455+15.6319C78.2255+15.6319+77.9455+15.5097+77.7455+15.3055C77.5455+15.0993+77.4255+14.853+77.4255+14.5656C77.4255+14.2783+77.5455+13.99+77.7455+13.7858L77.7455+13.7858Z" opacity="0" fill="#000000"/>
<path d="M80.5575+0C76.1825+0+72.4455+1.54954+69.3435+4.73276C66.2415+7.91598+64.7295+11.7519+64.7295+16.2414C64.7295+16.4846+64.7295+16.7309+64.7295+16.9762C64.8905+21.1373+66.4015+24.6469+69.3435+27.6659C70.1395+28.4827+70.9335+29.2165+71.8095+29.788C73.3205+30.8481+74.9125+31.5818+76.5805+31.9902C77.8535+32.3166+79.2055+32.4808+80.5575+32.4808C83.3405+32.4808+85.8065+31.8271+88.0335+30.6018C88.4305+30.3576+88.8295+30.0313+89.2275+29.787C90.1025+29.2144+90.8965+28.4817+91.6915+27.6649C94.6345+24.6448+96.2265+21.1363+96.3845+16.9751C96.3845+16.7288+96.3845+16.4836+96.3845+16.2404C96.3845+11.7508+94.7935+7.91495+91.6915+4.73173C88.5895+1.54954+84.9315+0+80.5575+0L80.5575+0Z" opacity="1" fill="#000000"/>
<path d="M66.9575+53.9465L58.2875+45.1315L48.8225+54.2718L71.0135+76.7975C71.1705+76.4732+71.3305+76.1438+71.4905+75.8185L83.8975+47.581L86.4415+48.3137L72.5235+79.9797L72.5235+98.9148L96.3835+98.9148L96.3835+36.4829L74.5915+36.4829L66.9575+53.9465L66.9575+53.9465Z" opacity="1" fill="#000000"/>
<path d="M54.0725+99L54.0725+89.4503L2.6155+89.4503L2.6155+99L54.0725+99Z" opacity="1" fill="#000000"/>
<path d="M40.6325+86.8377L40.6325+82.7576L15.9765+82.7576L15.9765+86.8377L40.6325+86.8377Z" opacity="1" fill="#000000"/>
<path d="M58.2875+47.4989L58.2875+44.8883L11.9205+44.8883C11.8415+45.2157+11.7625+45.54+11.7625+45.9484C11.7625+46.52+11.8415+47.0115+12.0015+47.4989C12.3985+48.7232+13.1935+49.7853+14.5455+50.6811C16.3745+51.9885+18.6815+52.6412+21.3065+52.6412C23.9315+52.6412+26.2375+51.9885+28.0675+50.6811C29.4195+49.7853+30.2135+48.7232+30.6115+47.4989L58.2875+47.4989L58.2875+47.4989Z" opacity="1" fill="#000000"/>
<path d="M56.2885+62.0287C56.2885+61.7834+56.2885+61.4571+56.2885+61.2118L6.9785+61.2118C6.9785+61.4571+6.9785+61.7834+6.9785+62.0287C6.9785+67.4982+9.3645+72.23+14.2155+76.0679C15.7275+77.2921+17.3175+78.2721+18.9875+79.168C19.7035+79.4923+20.4985+79.8217+21.2935+80.147C22.0095+80.3922+22.6465+80.6385+23.3615+80.8807C22.3275+79.3301+21.7705+77.6174+21.7705+75.7385C21.7705+72.8015+23.0425+70.272+25.6665+68.1478C25.6665+68.1478+25.6665+68.1478+25.7465+68.0688C26.0645+67.8235+26.3825+67.5783+26.7805+67.3361C26.5415+67.5783+26.3825+67.9067+26.3025+68.1478C25.5875+69.5393+25.2685+71.0067+25.2685+72.6394C25.2685+75.2521+26.1435+77.4543+27.8935+79.3311C29.1655+80.7196+30.6775+81.5344+32.3475+81.9438C32.4275+81.9438+32.5865+81.9438+32.7455+81.9438C32.0295+81.3722+31.4725+80.8027+31.0755+80.148C30.0405+78.7606+29.5635+77.2931+29.5635+75.6605C29.5635+72.8857+30.9155+70.5193+33.6985+68.5572C33.9385+68.3951+34.0965+68.2319+34.3365+68.1488C36.0065+67.0908+37.9155+66.4372+39.9825+66.0287C39.3465+66.4372+38.7905+66.8456+38.2325+67.3371C37.9955+67.5793+37.7565+67.9077+37.5185+68.1488C36.0065+69.8656+35.2905+71.9067+35.2905+74.111C35.2905+76.3952+36.0855+78.4363+37.5965+80.149C37.8345+80.3943+37.9945+80.5564+38.2325+80.8037C38.3935+80.8827+38.5515+81.048+38.6305+81.2101C39.1885+81.048+39.8245+80.8827+40.4615+80.7196C40.6995+80.6395+40.8595+80.5564+41.0975+80.4774C41.5745+80.149+42.0515+79.7396+42.4495+79.2521C42.7685+78.9248+43.0855+78.5985+43.3245+78.1911C44.2785+76.7205+44.7555+75.0078+44.7555+73.1289C44.7555+72.3151+44.6765+71.5794+44.5185+70.8446C45.5525+72.232+46.1095+73.7816+46.1095+75.6605C46.1095+76.6395+45.9495+77.5353+45.6305+78.4353C46.8245+77.6975+47.9365+76.9648+49.0505+76.0679C51.5165+74.1099+53.3445+71.9847+54.5385+69.7014C54.6185+69.5403+54.6185+69.3741+54.6975+69.2951C54.8565+68.8867+55.0155+68.5572+55.1755+68.1488C55.8915+66.2719+56.2885+64.2309+56.2885+62.0287L56.2885+62.0287Z" opacity="1" fill="#000000"/>
<path d="M25.1225+60.8034C24.6455+60.8835+24.1695+61.0456+23.6915+61.1287L23.6115+61.2118C23.5325+61.2118+23.5325+61.2118+23.4525+61.2118L23.5325+61.2118C26.9525+60.8034+29.8945+59.4961+32.4405+57.455C35.7005+54.9265+37.3715+51.8253+37.3715+48.1516C37.3715+44.4789+35.7015+41.3778+32.4405+38.8482C29.1785+36.2366+25.2825+34.9303+20.6695+34.9303C16.1365+34.9303+12.1595+36.2356+8.8185+38.8482C8.7395+38.9293+8.7395+38.9293+8.6595+39.0104C11.4425+37.2966+15.0215+36.4818+19.3965+36.5609C23.7705+36.644+27.4285+37.7861+30.3725+40.0704C33.3135+42.2746+34.8265+45.1305+34.7475+48.4779C34.6665+51.8233+33.3145+54.6792+30.5315+57.1276C28.3845+59.0086+26.6345+60.2329+25.1225+60.8034L25.1225+60.8034Z" opacity="1" fill="#000000"/>
<path d="M9.6145+57.2918C11.7615+57.5381+12.7955+56.6422+12.7955+54.6812C12.7165+52.7222+11.7625+50.2748+9.7745+47.3348C9.9335+49.1316+9.4565+51.1727+8.2625+53.459C7.0685+55.7423+7.5465+57.0476+9.6145+57.2918L9.6145+57.2918Z" opacity="1" fill="#000000"/>
</g>
</g>
</svg>
