<?xml version="1.0" encoding="UTF-8" standalone="no"?> <!-- Created with Vectornator Pro for iOS (http://vectornator.io/) --><!DOCTYPE svg PUBLIC "-//W3C//DTD SVG 1.1//EN" "http://www.w3.org/Graphics/SVG/1.1/DTD/svg11.dtd">
<svg style="fill-rule:evenodd;clip-rule:evenodd;stroke-linecap:round;stroke-linejoin:round;" xmlns:vectornator="http://vectornator.io" xmlns:xlink="http://www.w3.org/1999/xlink" xmlns="http://www.w3.org/2000/svg" xml:space="preserve" version="1.1" viewBox="0 0 100 100">
<metadata>
<vectornator:setting key="Units" value="Points"/>
<vectornator:setting key="GridSpacing" value="36"/>
<vectornator:setting key="RulersVisible" value="1"/>
<vectornator:setting key="DynamicGuides" value="1"/>
</metadata>
<defs/>
<g id="Untitled" vectornator:layerName="Untitled" visibility="hidden">
<path d="M91.7+11L8.3+11C5.1+11+2.5+13.6863+2.5+16.9925L2.5+67.2058C2.5+70.512+5.1+73.1983+8.3+73.1983L36.9+73.1983L46.2+89.4195C47.9+92.4157+52.1+92.4157+53.9+89.4195L63.2+73.1983L91.8+73.1983C95+73.1983+97.6+70.512+97.6+67.2058L97.6+16.9925C97.5+13.6863+94.9+11+91.7+11ZM75.1+54.4975L24.9+54.4975C23.4+54.4975+22.2+53.2577+22.2+51.7079C22.2+50.1581+23.4+48.9182+24.9+48.9182L75+48.9182C76.5+48.9182+77.7+50.1581+77.7+51.7079C77.8+53.2577+76.6+54.4975+75.1+54.4975ZM75.1+35.1768L24.9+35.1768C23.4+35.1768+22.2+33.9369+22.2+32.3871C22.2+30.8373+23.4+29.5975+24.9+29.5975L75+29.5975C76.5+29.5975+77.7+30.8373+77.7+32.3871C77.8+33.9369+76.6+35.1768+75.1+35.1768Z" opacity="1" fill="#000000"/>
<path d="M91.7+11L8.3+11C5.1+11+2.5+13.6863+2.5+16.9925L2.5+67.2058C2.5+70.512+5.1+73.1983+8.3+73.1983L36.9+73.1983L46.2+89.4195C47.9+92.4157+52.1+92.4157+53.9+89.4195L63.2+73.1983L91.8+73.1983C95+73.1983+97.6+70.512+97.6+67.2058L97.6+16.9925C97.5+13.6863+94.9+11+91.7+11ZM75.1+54.4975L24.9+54.4975C23.4+54.4975+22.2+53.2577+22.2+51.7079C22.2+50.1581+23.4+48.9182+24.9+48.9182L75+48.9182C76.5+48.9182+77.7+50.1581+77.7+51.7079C77.8+53.2577+76.6+54.4975+75.1+54.4975ZM75.1+35.1768L24.9+35.1768C23.4+35.1768+22.2+33.9369+22.2+32.3871C22.2+30.8373+23.4+29.5975+24.9+29.5975L75+29.5975C76.5+29.5975+77.7+30.8373+77.7+32.3871C77.8+33.9369+76.6+35.1768+75.1+35.1768Z" opacity="1" fill="#000000"/>
</g>
<g id="Layer 1" vectornator:layerName="Layer 1" visibility="hidden">
<path d="M61.6296+100.949L61.729+100.949C61.8389+100.949+61.9279+101.038+61.9279+101.148L61.9279+101.148C61.9279+101.258+61.8389+101.347+61.729+101.347L61.6296+101.347C61.5197+101.347+61.4307+101.258+61.4307+101.148L61.4307+101.148C61.4307+101.038+61.5197+100.949+61.6296+100.949Z" opacity="0.65" fill="#ffffff"/>
<path d="M26.7293+13.25L76.5978+13.25C89.5225+13.25+100+25.7471+100+41.1631L100+41.1631C100+56.5791+89.5225+69.0763+76.5978+69.0763L51.6635+70.2405L15.6708+80.9778L26.7293+69.0763C13.8046+69.0763+3.32706+56.5791+3.32706+41.1631L3.32706+41.1631C3.32706+25.7471+13.8046+13.25+26.7293+13.25Z" opacity="1" fill="#020000"/>
<g opacity="1">
<path d="M25.4587+22.3841L77.8684+22.3841C79.9555+22.3841+81.6474+24.076+81.6474+26.1631L81.6474+26.1631C81.6474+28.2503+79.9555+29.9422+77.8684+29.9422L25.4587+29.9422C23.3716+29.9422+21.6796+28.2503+21.6796+26.1631L21.6796+26.1631C21.6796+24.076+23.3716+22.3841+25.4587+22.3841Z" opacity="0.65" fill="#ffffff"/>
<path d="M25.4587+35.1136L77.8684+35.1136C79.9555+35.1136+81.6474+36.8055+81.6474+38.8926L81.6474+38.8926C81.6474+40.9797+79.9555+42.6717+77.8684+42.6717L25.4587+42.6717C23.3716+42.6717+21.6796+40.9797+21.6796+38.8926L21.6796+38.8926C21.6796+36.8055+23.3716+35.1136+25.4587+35.1136Z" opacity="0.65" fill="#ffffff"/>
<path d="M25.4587+47.5543L77.8684+47.5543C79.9555+47.5543+81.6474+49.2462+81.6474+51.3333L81.6474+51.3333C81.6474+53.4205+79.9555+55.1124+77.8684+55.1124L25.4587+55.1124C23.3716+55.1124+21.6796+53.4205+21.6796+51.3333L21.6796+51.3333C21.6796+49.2462+23.3716+47.5543+25.4587+47.5543Z" opacity="0.65" fill="#ffffff"/>
</g>
</g>
<g id="Layer 1_2" vectornator:layerName="Layer 1">
<path d="M61.6296+100.949L61.729+100.949C61.8389+100.949+61.9279+101.038+61.9279+101.148L61.9279+101.148C61.9279+101.258+61.8389+101.347+61.729+101.347L61.6296+101.347C61.5197+101.347+61.4307+101.258+61.4307+101.148L61.4307+101.148C61.4307+101.038+61.5197+100.949+61.6296+100.949Z" opacity="0.65" fill="#ffffff"/>
<path d="M26.9168+15.1472C14.9532+15.1472+5.251+28.0039+5.251+43.8722C5.251+59.7405+14.9532+72.5972+26.9168+72.5972L16.6769+84.8528L50+73.8196L73.0832+72.5972C85.0468+72.5973+94.749+59.7405+94.749+43.8722C94.749+28.0039+85.0468+15.1472+73.0832+15.1472L26.9168+15.1472ZM25.7598+24.5399L74.2692+24.5399C76.2011+24.5399+77.7693+26.2837+77.7693+28.4321C77.7693+30.5805+76.2011+32.3243+74.2692+32.3243L25.7598+32.3243C23.8278+32.3243+22.2597+30.5804+22.2597+28.4321C22.2597+26.2837+23.8278+24.5399+25.7598+24.5399ZM25.7598+37.664L74.2692+37.664C76.2011+37.664+77.7693+39.4078+77.7693+41.5562C77.7693+43.7046+76.2011+45.4162+74.2692+45.4162L25.7598+45.4162C23.8278+45.4162+22.2597+43.7045+22.2597+41.5562C22.2597+39.4078+23.8278+37.664+25.7598+37.664ZM25.7598+50.4664L74.2692+50.4664C76.2011+50.4664+77.7693+52.2103+77.7693+54.3586C77.7693+56.507+76.2011+58.2508+74.2692+58.2508L25.7598+58.2508C23.8278+58.2508+22.2597+56.507+22.2597+54.3586C22.2597+52.2103+23.8278+50.4664+25.7598+50.4664Z" opacity="1" fill="#020000"/>
<path d="M61.6296+100.949L61.729+100.949C61.8389+100.949+61.9279+101.038+61.9279+101.148L61.9279+101.148C61.9279+101.258+61.8389+101.347+61.729+101.347L61.6296+101.347C61.5197+101.347+61.4307+101.258+61.4307+101.148L61.4307+101.148C61.4307+101.038+61.5197+100.949+61.6296+100.949Z" opacity="0.65" fill="#ffffff"/>
</g>
<g id="Layer 1_3" vectornator:layerName="Layer 1" visibility="hidden">
<path d="M61.6296+100.949L61.729+100.949C61.8389+100.949+61.9279+101.038+61.9279+101.148L61.9279+101.148C61.9279+101.258+61.8389+101.347+61.729+101.347L61.6296+101.347C61.5197+101.347+61.4307+101.258+61.4307+101.148L61.4307+101.148C61.4307+101.038+61.5197+100.949+61.6296+100.949Z" opacity="0.65" fill="#ffffff"/>
<path d="M26.7293+13.25L76.5978+13.25C89.5225+13.25+100+25.7471+100+41.1631L100+41.1631C100+56.5791+89.5225+69.0763+76.5978+69.0763L51.6635+70.2405L15.6708+80.9778L26.7293+69.0763C13.8046+69.0763+3.32706+56.5791+3.32706+41.1631L3.32706+41.1631C3.32706+25.7471+13.8046+13.25+26.7293+13.25Z" opacity="1" fill="#020000"/>
</g>
<g id="Layer 1_4" vectornator:layerName="Layer 1" visibility="hidden">
<path d="M61.6296+100.949L61.729+100.949C61.8389+100.949+61.9279+101.038+61.9279+101.148L61.9279+101.148C61.9279+101.258+61.8389+101.347+61.729+101.347L61.6296+101.347C61.5197+101.347+61.4307+101.258+61.4307+101.148L61.4307+101.148C61.4307+101.038+61.5197+100.949+61.6296+100.949Z" opacity="0.65" fill="#ffffff"/>
<path d="M26.7293+13.25L76.5978+13.25C89.5225+13.25+100+25.7471+100+41.1631L100+41.1631C100+56.5791+89.5225+69.0763+76.5978+69.0763L51.6635+70.2405L15.6708+80.9778L26.7293+69.0763C13.8046+69.0763+3.32706+56.5791+3.32706+41.1631L3.32706+41.1631C3.32706+25.7471+13.8046+13.25+26.7293+13.25Z" opacity="1" fill="#020000"/>
<g opacity="1">
<path d="M25.4587+22.3841L77.8684+22.3841C79.9555+22.3841+81.6474+24.076+81.6474+26.1631L81.6474+26.1631C81.6474+28.2503+79.9555+29.9422+77.8684+29.9422L25.4587+29.9422C23.3716+29.9422+21.6796+28.2503+21.6796+26.1631L21.6796+26.1631C21.6796+24.076+23.3716+22.3841+25.4587+22.3841Z" opacity="0.65" fill="#ffffff"/>
<path d="M25.4587+35.1136L77.8684+35.1136C79.9555+35.1136+81.6474+36.8055+81.6474+38.8926L81.6474+38.8926C81.6474+40.9797+79.9555+42.6717+77.8684+42.6717L25.4587+42.6717C23.3716+42.6717+21.6796+40.9797+21.6796+38.8926L21.6796+38.8926C21.6796+36.8055+23.3716+35.1136+25.4587+35.1136Z" opacity="0.65" fill="#ffffff"/>
<path d="M25.4587+47.5543L77.8684+47.5543C79.9555+47.5543+81.6474+49.2462+81.6474+51.3333L81.6474+51.3333C81.6474+53.4205+79.9555+55.1124+77.8684+55.1124L25.4587+55.1124C23.3716+55.1124+21.6796+53.4205+21.6796+51.3333L21.6796+51.3333C21.6796+49.2462+23.3716+47.5543+25.4587+47.5543Z" opacity="0.65" fill="#ffffff"/>
</g>
</g>
</svg>
