<?xml version="1.0" encoding="UTF-8" standalone="no"?> <!-- Created with Vectornator Pro for iOS (http://vectornator.io/) --><!DOCTYPE svg PUBLIC "-//W3C//DTD SVG 1.1//EN" "http://www.w3.org/Graphics/SVG/1.1/DTD/svg11.dtd">
<svg style="fill-rule:evenodd;clip-rule:evenodd;stroke-linecap:round;stroke-linejoin:round;" xmlns:vectornator="http://vectornator.io" xmlns:xlink="http://www.w3.org/1999/xlink" xmlns="http://www.w3.org/2000/svg" xml:space="preserve" version="1.1" viewBox="0 0 64 64">
<metadata>
<vectornator:setting key="CMYKEnabledKey" value="0"/>
<vectornator:setting key="Units" value="Points"/>
<vectornator:setting key="GridSpacing" value="36"/>
<vectornator:setting key="RulersVisible" value="1"/>
<vectornator:setting key="DynamicGuides" value="1"/>
</metadata>
<defs/>
<g id="Untitled" vectornator:layerName="Untitled">
<path d="M11.0648+4.04663C9.35888+4.08791+7.64986+4.21344+5.96267+4.40638C5.2478+4.48811+4.57163+4.58211+3.99393+4.6702C3.64182+4.72388+3.3867+4.76423+3.24525+4.79012C2.41573+4.94188+1.83108+5.6231+1.83108+6.39701L1.83108+42.1084C1.83108+43.133+2.86807+43.8923+3.9662+43.6913C4.07123+43.6721+4.26285+43.6432+4.57623+43.5954C5.10768+43.5144+5.7132+43.4317+6.3786+43.3556C9.51124+42.9974+12.7587+42.89+15.7509+43.1637C16.9631+43.2746+18.088+43.4521+19.1338+43.6913C21.4926+44.2308+23.8283+45.1939+26.066+46.4734C27.3353+47.1992+28.513+47.9749+29.5321+48.7519C29.7902+48.9486+30.0151+49.1313+30.2254+49.3035L30.2254+9.41893C29.5126+8.93645+28.7496+8.4602+27.9516+8.00391C25.4191+6.55586+22.7734+5.44356+20.0212+4.8141C18.7994+4.53466+17.4872+4.34036+16.1114+4.21451C14.4649+4.06388+12.7707+4.00535+11.0648+4.04663ZM52.9352+4.04663C51.2293+4.00535+49.5351+4.06388+47.8886+4.21451C46.5128+4.34036+45.2006+4.53466+43.9788+4.8141C41.2266+5.44356+38.5809+6.55586+36.0484+8.00391C35.2504+8.4602+34.4874+8.93645+33.7746+9.41893L33.7746+49.3035C33.9849+49.1313+34.2098+48.9486+34.4679+48.7519C35.487+47.9749+36.6647+47.1992+37.934+46.4734C40.1717+45.1939+42.5074+44.2308+44.8662+43.6913C45.912+43.4521+47.0369+43.2746+48.2491+43.1637C51.2413+42.89+54.4888+42.9974+57.6214+43.3556C58.2868+43.4317+58.8923+43.5144+59.4238+43.5954C59.7372+43.6432+59.9288+43.6721+60.0338+43.6913C61.1319+43.8923+62.1689+43.133+62.1689+42.1084L62.1689+6.39701C62.1689+5.6231+61.5843+4.94188+60.7547+4.79012C60.6133+4.76423+60.3582+4.72388+60.0061+4.6702C59.4284+4.58211+58.7522+4.48811+58.0373+4.40638C56.3501+4.21343+54.6411+4.08791+52.9352+4.04663ZM14.2536+16.4701L16.1114+16.4701L16.1114+18.1489L23.515+18.1489L23.515+19.8278L19.7993+19.8278C19.7993+23.0869+17.8413+26.0761+15.5291+28.4618C16.5842+29.4195+17.6412+30.257+18.5238+30.8842L17.3869+32.2033C16.4672+31.5491+15.3513+30.6814+14.2536+29.685C11.3981+32.273+8.47377+33.9185+8.23643+34.05L7.26593+32.611C7.32155+32.5789+10.2171+30.9433+12.9781+28.4378C11.0905+26.482+9.40821+24.1271+8.8742+21.5306L10.7598+21.5306C11.2734+23.6179+12.6682+25.5573+14.2536+27.2147C16.2784+25.1021+17.9415+22.5338+17.9415+19.8278L6.82227+19.8278L6.82227+18.1489L14.2536+18.1489L14.2536+16.4701ZM47.8054+18.5087L49.6355+18.5087L49.691+18.6766L55.209+32.0114L53.2125+32.0114L51.8261+28.6297L45.6148+28.6297L44.2007+32.0114L42.2319+32.0114L47.7499+18.6766L47.8054+18.5087ZM48.7205+21.0509L46.3081+26.9509L51.1329+26.9509L48.7205+21.0509ZM10.3715+47.8645C8.50307+47.8793+6.65528+48.02+4.82579+48.2482C4.16531+48.3306+3.55275+48.4231+3.02342+48.512C3.0152+48.5134+3.00384+48.5104+2.99569+48.512C2.63076+48.5862+2.41549+48.9217+2.49657+49.2555L2.96796+51.2941C3.0371+51.5787+3.34773+51.7545+3.66118+51.7018C4.1383+51.6216+4.6924+51.5375+5.29718+51.462C8.64409+51.0445+12.1529+50.9773+15.3905+51.438C16.0774+51.5358+16.7205+51.6517+17.3592+51.7978C19.8316+52.3632+22.5584+53.6347+25.3451+55.4193C26.7375+56.311+28.0585+57.2677+29.2549+58.2253C29.6725+58.5597+30.0431+58.8841+30.364+59.1607C30.5526+59.3233+30.6919+59.4413+30.7522+59.4965C31.4452+60.1305+32.5643+60.123+33.2755+59.4725C33.3021+59.4486+33.2875+59.4393+33.331+59.4005C33.4118+59.3287+33.5251+59.2563+33.636+59.1607C33.9569+58.8841+34.3275+58.5597+34.7451+58.2253C35.9415+57.2677+37.2625+56.311+38.6549+55.4193C41.4416+53.6347+44.1684+52.3632+46.6408+51.7978C47.2795+51.6517+47.9226+51.5358+48.6095+51.438C51.8471+50.9773+55.3559+51.0445+58.7028+51.462C59.3076+51.5375+59.8617+51.6216+60.3388+51.7018C60.6523+51.7545+60.9629+51.5787+61.032+51.2941L61.5034+49.2555C61.5052+49.2481+61.5296+49.2391+61.5312+49.2315C61.5987+48.8952+61.3443+48.5738+60.9766+48.512C60.4473+48.4231+59.8347+48.3306+59.1742+48.2482C55.5152+47.7918+51.7086+47.7082+48.0827+48.2242C47.2922+48.3367+46.499+48.4854+45.7535+48.6559C42.7933+49.333+39.7145+50.7885+36.603+52.7811C35.098+53.7449+33.7031+54.7727+32.4159+55.803C32.2766+55.9145+32.1301+56.0083+32+56.1148C31.8699+56.0083+31.7234+55.9145+31.5841+55.803C30.2969+54.7727+28.902+53.7449+27.397+52.7811C24.2855+50.7885+21.2067+49.333+18.2465+48.6559C17.501+48.4854+16.7078+48.3367+15.9173+48.2242C14.1043+47.9662+12.24+47.8497+10.3715+47.8645Z" opacity="1" fill="#000000"/>
</g>
</svg>
