<?xml version="1.0" encoding="UTF-8" standalone="no"?> <!-- Created with Vectornator Pro for iOS (http://vectornator.io/) --><!DOCTYPE svg PUBLIC "-//W3C//DTD SVG 1.1//EN" "http://www.w3.org/Graphics/SVG/1.1/DTD/svg11.dtd">
<svg style="fill-rule:evenodd;clip-rule:evenodd;stroke-linecap:round;stroke-linejoin:round;" xmlns:vectornator="http://vectornator.io" xmlns:xlink="http://www.w3.org/1999/xlink" xmlns="http://www.w3.org/2000/svg" xml:space="preserve" version="1.1" viewBox="0 0 64 64">
<metadata>
<vectornator:setting key="DisplayWhiteBackground" value="0"/>
<vectornator:setting key="RulersVisible" value="1"/>
<vectornator:setting key="GridSpacing" value="36"/>
<vectornator:setting key="Units" value="Pixels"/>
<vectornator:setting key="DynamicGuides" value="0"/>
<vectornator:setting key="SnapToPoints" value="0"/>
<vectornator:setting key="SnapToGrid" value="0"/>
<vectornator:setting key="ShowGrid" value="1"/>
<vectornator:setting key="SnapToEdges" value="0"/>
</metadata>
<defs/>
<g id="Layer 2" vectornator:layerName="Layer 2">
<path d="M16+8.5C7.79846+8.5+1.15625+17.011+1.15625+27.5C1.15625+37.989+7.79846+46.4688+16+46.4688L8.96875+54.5938L31.8125+47.2812L47.6562+46.4688C55.8578+46.4688+62.5+37.989+62.5+27.5C62.5+17.011+55.8578+8.49999+47.6562+8.5L16+8.5ZM15.1875+15.7188L20.2812+15.7188C21.5814+15.7188+22.625+16.7623+22.625+18.0625C22.625+19.3627+21.5814+20.4375+20.2812+20.4375L15.1875+20.4375C13.8873+20.4375+12.8438+19.3627+12.8438+18.0625C12.8438+16.7623+13.8873+15.7187+15.1875+15.7188ZM27.25+15.75L44.6875+15.75C46.3576+15.75+47.7188+16.7936+47.7188+18.0938C47.7188+19.3939+46.3576+20.4375+44.6875+20.4375L27.25+20.4375C25.5799+20.4375+24.2187+19.3939+24.2188+18.0938C24.2188+16.7936+25.5799+15.75+27.25+15.75ZM16.6875+23.25L33.0938+23.25C34.6631+23.25+35.9375+24.3248+35.9375+25.625C35.9375+26.9252+34.6631+27.9687+33.0938+27.9688L16.6875+27.9688C15.1181+27.9688+13.8438+26.9252+13.8438+25.625C13.8438+24.3248+15.1181+23.25+16.6875+23.25ZM39.9375+23.375L48.9375+23.375C50.2377+23.375+51.2812+24.4186+51.2812+25.7188C51.2812+27.0189+50.2377+28.0625+48.9375+28.0625L39.9375+28.0625C38.6373+28.0625+37.5938+27.0189+37.5938+25.7188C37.5938+24.4186+38.6373+23.375+39.9375+23.375ZM15.2812+31.2188L38.2188+31.2188C39.5189+31.2188+40.5625+32.2936+40.5625+33.5938C40.5625+34.8939+39.5189+35.9375+38.2188+35.9375L15.2812+35.9375C13.9811+35.9375+12.9375+34.8939+12.9375+33.5938C12.9375+32.2936+13.9811+31.2187+15.2812+31.2188ZM52.625+32.7188L54.7812+32.7188C54.9887+32.7188+55.1563+33.3477+55.1562+34.125C55.1562+34.9023+54.9887+35.5313+54.7812+35.5312L52.625+35.5312C52.4176+35.5312+52.25+34.9023+52.25+34.125C52.25+33.3477+52.4176+32.7188+52.625+32.7188ZM47.9375+32.7812L50.0938+32.7812C50.3012+32.7812+50.4687+33.4102+50.4688+34.1875C50.4688+34.9648+50.3012+35.5937+50.0938+35.5938L47.9375+35.5938C47.7301+35.5938+47.5312+34.9648+47.5312+34.1875C47.5312+33.4102+47.7301+32.7812+47.9375+32.7812ZM43.3438+32.9375L45.5+32.9375C45.7074+32.9375+45.875+33.5665+45.875+34.3438C45.875+35.121+45.7074+35.75+45.5+35.75L43.3438+35.75C43.1363+35.75+42.9687+35.121+42.9688+34.3438C42.9688+33.5665+43.1363+32.9375+43.3438+32.9375Z" opacity="1" fill="#020000"/>
</g>
</svg>
