<?xml version="1.0" encoding="UTF-8" standalone="no"?> <!-- Created with Vectornator Pro for iOS (http://vectornator.io/) --><!DOCTYPE svg PUBLIC "-//W3C//DTD SVG 1.1//EN" "http://www.w3.org/Graphics/SVG/1.1/DTD/svg11.dtd">
<svg style="fill-rule:evenodd;clip-rule:evenodd;stroke-linecap:round;stroke-linejoin:round;" xmlns:vectornator="http://vectornator.io" xmlns:xlink="http://www.w3.org/1999/xlink" xmlns="http://www.w3.org/2000/svg" xml:space="preserve" version="1.1" viewBox="0 0 64 64">
<metadata>
<vectornator:setting key="DisplayWhiteBackground" value="0"/>
<vectornator:setting key="RulersVisible" value="1"/>
<vectornator:setting key="SnapToEdges" value="0"/>
<vectornator:setting key="Units" value="Pixels"/>
<vectornator:setting key="DynamicGuides" value="0"/>
<vectornator:setting key="SnapToPoints" value="0"/>
<vectornator:setting key="SnapToGrid" value="0"/>
<vectornator:setting key="ShowGrid" value="1"/>
<vectornator:setting key="GridSpacing" value="36"/>
</metadata>
<defs/>
<g id="Layer 1" vectornator:layerName="Layer 1">
<path stroke="#fdfdfd" stroke-width="0.5" d="M50.3476+0.903542L14.4391+0.930888C11.531+0.934848+9.19009+3.35397+9.19416+6.3446L9.27998+57.4421C9.28406+60.4327+11.6277+62.8456+14.5358+62.8416L50.4131+62.8139C53.3212+62.81+55.6933+60.3912+55.6893+57.4006L55.6347+6.30338C55.6306+3.31276+53.2557+0.899583+50.3476+0.903542ZM44.7833+6.97017C48.8978+6.96456+52.257+8.00264+52.2588+9.33043C52.2606+10.6582+48.9098+11.7462+44.7953+11.7518L21.0749+11.7828C16.9604+11.7884+13.6328+10.7194+13.631+9.39158C13.6292+8.0638+16.9484+7.00672+21.0629+7.00112L44.7833+6.97017ZM44.2821+15.9654C47.1956+15.9614+49.5678+17.0373+49.5696+18.3651C49.5714+19.6928+47.2073+20.7743+44.2938+20.7783L27.5112+20.8199C24.5977+20.8239+22.2255+19.748+22.2237+18.4203C22.2219+17.0925+24.586+16.011+27.4995+16.007L44.2821+15.9654ZM44.7121+25.5642C47.6256+25.5602+49.9668+26.6045+49.9686+27.9323C49.9704+29.2601+47.6376+30.3419+44.7241+30.3458L27.879+30.3868C24.9655+30.3908+22.6246+29.3153+22.6228+27.9875C22.621+26.6597+24.9847+25.6095+27.8982+25.6055L44.7121+25.5642ZM44.825+35.5972C47.7385+35.5932+50.0794+36.6688+50.0812+37.9965C50.083+39.3243+47.7189+40.4058+44.8054+40.4098L28.0228+40.4514C25.1093+40.4554+22.7684+39.3799+22.7666+38.0521C22.7648+36.7243+25.1289+35.6428+28.0423+35.6389L44.825+35.5972ZM44.9954+46.0996C47.9089+46.0956+50.2811+47.1715+50.2829+48.4993C50.2847+49.827+47.9206+50.9085+45.0071+50.9125L28.1936+50.9226C25.2801+50.9265+22.9392+49.851+22.9374+48.5232C22.9355+47.1954+25.2684+46.1136+28.1819+46.1097L44.9954+46.0996Z" fill="#000000" stroke-linecap="butt" opacity="1" stroke-linejoin="round"/>
</g>
<g id="Layer 2" vectornator:layerName="Layer 2" visibility="hidden">
<path d="M9.07972+49.8607L9.17343+49.8607C9.22518+49.8607+9.26713+49.9026+9.26713+49.9544L9.26713+49.9544C9.26713+50.0062+9.22518+50.0481+9.17343+50.0481L9.07972+50.0481C9.02797+50.0481+8.98601+50.0062+8.98601+49.9544L8.98601+49.9544C8.98601+49.9026+9.02797+49.8607+9.07972+49.8607Z" opacity="1" fill="#ffffff"/>
<path stroke="#fdfdfd" stroke-width="1" d="M14.7212+46.8433L17.2997+49.3713C17.3322+49.4033+17.3465+49.4853+17.3314+49.5545L17.3314+49.5545C17.3164+49.6237+17.2778+49.654+17.2453+49.6221L14.6668+47.094C14.6342+47.0621+14.62+46.9801+14.635+46.9109L14.635+46.9109C14.6501+46.8416+14.6886+46.8114+14.7212+46.8433Z" fill="#ffffff" stroke-linecap="butt" opacity="1" stroke-linejoin="round"/>
<path stroke="#fdfdfd" stroke-width="1" d="M17.18+49.3516L20.9802+43.217C21.0282+43.1395+21.1147+43.128+21.1736+43.1912L21.1736+43.1912C21.2324+43.2544+21.2412+43.3685+21.1932+43.446L17.393+49.5806C17.345+49.6581+17.2584+49.6697+17.1996+49.6064L17.1996+49.6064C17.1407+49.5432+17.132+49.4291+17.18+49.3516Z" fill="#ffffff" stroke-linecap="butt" opacity="1" stroke-linejoin="round"/>
<g opacity="1">
<path stroke="#fdfdfd" stroke-width="1" d="M14.3667+27.4957L16.9451+30.0237C16.9777+30.0556+16.9919+30.1376+16.9769+30.2068L16.9769+30.2068C16.9619+30.2761+16.9233+30.3063+16.8907+30.2744L14.3123+27.7464C14.2797+27.7144+14.2655+27.6324+14.2805+27.5632L14.2805+27.5632C14.2955+27.494+14.3341+27.4637+14.3667+27.4957Z" fill="#ffffff" stroke-linecap="butt" opacity="1" stroke-linejoin="round"/>
<path stroke="#fdfdfd" stroke-width="1" d="M16.8254+30.0039L20.6256+23.8694C20.6736+23.7919+20.7602+23.7803+20.819+23.8435L20.819+23.8435C20.8778+23.9068+20.8866+24.0209+20.8386+24.0983L17.0384+30.2329C16.9904+30.3104+16.9039+30.322+16.845+30.2587L16.845+30.2587C16.7862+30.1955+16.7774+30.0814+16.8254+30.0039Z" fill="#000000" stroke-linecap="butt" opacity="1" stroke-linejoin="round"/>
</g>
<g opacity="1">
<path stroke="#fdfdfd" stroke-width="1" d="M14.6199+19.0374L17.1984+21.5654C17.2309+21.5973+17.2452+21.6793+17.2302+21.7486L17.2302+21.7486C17.2151+21.8178+17.1766+21.848+17.144+21.8161L14.5655+19.2881C14.5329+19.2562+14.5187+19.1742+14.5337+19.1049L14.5337+19.1049C14.5488+19.0357+14.5873+19.0054+14.6199+19.0374Z" fill="#ffffff" stroke-linecap="butt" opacity="1" stroke-linejoin="round"/>
<path stroke="#fdfdfd" stroke-width="1" d="M17.0787+21.5457L20.8789+15.4111C20.9269+15.3336+21.0134+15.322+21.0723+15.3853L21.0723+15.3853C21.1311+15.4485+21.1399+15.5626+21.0919+15.6401L17.2917+21.7747C17.2437+21.8521+17.1571+21.8637+17.0983+21.8005L17.0983+21.8005C17.0395+21.7372+17.0307+21.6231+17.0787+21.5457Z" fill="#000000" stroke-linecap="butt" opacity="1" stroke-linejoin="round"/>
</g>
<g opacity="1">
<path stroke="#fdfdfd" stroke-width="1" d="M14.7974+39.8849L19.1499+34.0797C19.2049+34.0064+19.3041+33.9954+19.3715+34.0553L19.3715+34.0553C19.4388+34.1151+19.4489+34.2231+19.3939+34.2964L15.0413+40.1016C14.9863+40.1749+14.8872+40.1859+14.8198+40.126L14.8198+40.126C14.7524+40.0662+14.7424+39.9582+14.7974+39.8849Z" fill="#fffefe" stroke-linecap="butt" opacity="1" stroke-linejoin="round"/>
<path stroke="#fdfdfd" stroke-width="1" d="M19.6621+39.6882L14.607+34.5032C14.5431+34.4377+14.5463+34.3365+14.614+34.277L14.614+34.277C14.6817+34.2176+14.7884+34.2225+14.8522+34.288L19.9074+39.473C19.9712+39.5385+19.9681+39.6398+19.9004+39.6992L19.9004+39.6992C19.8326+39.7586+19.726+39.7537+19.6621+39.6882Z" fill="#fffefe" stroke-linecap="butt" opacity="1" stroke-linejoin="round"/>
</g>
</g>
<g id="Layer 3" vectornator:layerName="Layer 3" visibility="hidden">
<g opacity="1">
<path stroke="#fdfdfd" stroke-width="1" d="M14.3667+27.4957L16.9451+30.0237C16.9777+30.0556+16.9919+30.1376+16.9769+30.2068L16.9769+30.2068C16.9619+30.2761+16.9233+30.3063+16.8907+30.2744L14.3123+27.7464C14.2797+27.7144+14.2655+27.6324+14.2805+27.5632L14.2805+27.5632C14.2955+27.494+14.3341+27.4637+14.3667+27.4957Z" fill="#ffffff" stroke-linecap="butt" opacity="1" stroke-linejoin="round"/>
<path stroke="#fdfdfd" stroke-width="1" d="M16.8254+30.0039L20.6256+23.8694C20.6736+23.7919+20.7602+23.7803+20.819+23.8435L20.819+23.8435C20.8778+23.9068+20.8866+24.0209+20.8386+24.0983L17.0384+30.2329C16.9904+30.3104+16.9039+30.322+16.845+30.2587L16.845+30.2587C16.7862+30.1955+16.7774+30.0814+16.8254+30.0039Z" fill="#000000" stroke-linecap="butt" opacity="1" stroke-linejoin="round"/>
</g>
<g opacity="1">
<path stroke="#fdfdfd" stroke-width="1" d="M14.6199+19.0374L17.1984+21.5654C17.2309+21.5973+17.2452+21.6793+17.2302+21.7486L17.2302+21.7486C17.2151+21.8178+17.1766+21.848+17.144+21.8161L14.5655+19.2881C14.5329+19.2562+14.5187+19.1742+14.5337+19.1049L14.5337+19.1049C14.5488+19.0357+14.5873+19.0054+14.6199+19.0374Z" fill="#ffffff" stroke-linecap="butt" opacity="1" stroke-linejoin="round"/>
<path stroke="#fdfdfd" stroke-width="1" d="M17.0787+21.5457L20.8789+15.4111C20.9269+15.3336+21.0134+15.322+21.0723+15.3853L21.0723+15.3853C21.1311+15.4485+21.1399+15.5626+21.0919+15.6401L17.2917+21.7747C17.2437+21.8521+17.1571+21.8637+17.0983+21.8005L17.0983+21.8005C17.0395+21.7372+17.0307+21.6231+17.0787+21.5457Z" fill="#000000" stroke-linecap="butt" opacity="1" stroke-linejoin="round"/>
</g>
<g opacity="1">
<path stroke="#fdfdfd" stroke-width="1" d="M14.7974+39.8849L19.1499+34.0797C19.2049+34.0064+19.3041+33.9954+19.3715+34.0553L19.3715+34.0553C19.4388+34.1151+19.4489+34.2231+19.3939+34.2964L15.0413+40.1016C14.9863+40.1749+14.8872+40.1859+14.8198+40.126L14.8198+40.126C14.7524+40.0662+14.7424+39.9582+14.7974+39.8849Z" fill="#fffefe" stroke-linecap="butt" opacity="1" stroke-linejoin="round"/>
<path stroke="#fdfdfd" stroke-width="1" d="M19.6621+39.6882L14.607+34.5032C14.5431+34.4377+14.5463+34.3365+14.614+34.277L14.614+34.277C14.6817+34.2176+14.7884+34.2225+14.8522+34.288L19.9074+39.473C19.9712+39.5385+19.9681+39.6398+19.9004+39.6992L19.9004+39.6992C19.8326+39.7586+19.726+39.7537+19.6621+39.6882Z" fill="#fffefe" stroke-linecap="butt" opacity="1" stroke-linejoin="round"/>
</g>
<path stroke="#fdfdfd" stroke-width="1" d="M15.5598+33.5722L15.5861+33.5722C15.5897+33.5722+15.5926+33.5751+15.5926+33.5788L15.5926+33.5788C15.5926+33.5824+15.5897+33.5853+15.5861+33.5853L15.5598+33.5853C15.5562+33.5853+15.5532+33.5824+15.5532+33.5788L15.5532+33.5788C15.5532+33.5751+15.5562+33.5722+15.5598+33.5722Z" fill="#000000" stroke-linecap="butt" opacity="1" stroke-linejoin="round"/>
</g>
<g id="Layer 4" vectornator:layerName="Layer 4" visibility="hidden">
<path d="M15.8153+35.3176C15.8559+35.4818+14.5335+34.3034+13.2343+33.1633C12.3999+32.4311+11.8954+32.6114+12.3439+32.003C12.7066+31.5109+12.8453+30.8429+13.1328+31.0525C14.2657+31.8786+13.8279+31.7019+14.357+32.197C15.5571+33.3198+15.7527+32.6993+16.0712+32.3897C16.3315+32.1368+18.2309+29.2183+18.5772+28.6423C18.7958+28.2785+20.1312+27.5219+19.93+28.6287C19.725+29.7561+17.6748+32.6259+17.6748+32.6259" opacity="1" fill="#ff0000"/>
<path d="M16.0854+43.724C16.126+43.8882+14.8036+42.7098+13.5044+41.5697C12.67+40.8375+12.1655+41.0178+12.614+40.4093C12.9767+39.9173+13.1154+39.2492+13.4029+39.4589C14.5358+40.285+14.098+40.1083+14.6271+40.6034C15.8272+41.7261+16.0228+41.1057+16.3413+40.7961C16.6016+40.5432+18.501+37.6247+18.8472+37.0487C19.0659+36.6849+20.4013+35.9283+20.2001+37.0351C19.9951+38.1625+17.9449+41.0323+17.9449+41.0323" opacity="1" fill="#ff0000"/>
<path d="M16.0854+43.724C16.126+43.8882+14.8036+42.7098+13.5044+41.5697C12.67+40.8375+12.1655+41.0178+12.614+40.4093C12.9767+39.9173+13.1154+39.2492+13.4029+39.4589C14.5358+40.285+14.098+40.1083+14.6271+40.6034C15.8272+41.7261+16.0228+41.1057+16.3413+40.7961C16.6016+40.5432+18.501+37.6247+18.8472+37.0487C19.0659+36.6849+20.4013+35.9283+20.2001+37.0351C19.9951+38.1625+17.9449+41.0323+17.9449+41.0323" opacity="1" fill="#ff0000"/>
<path d="M16.4971+52.5215C16.657+52.3787+15.9191+52.7481+15.7257+52.5226C15.5208+52.2837+15.625+51.8324+15.7748+51.7256C16.0127+51.5561+19.0106+48.3837+19.3489+47.977C19.5625+47.7202+19.8396+47.122+20.4482+47.6037C21.0114+48.0496+20.2392+48.5435+20.2392+48.5435" opacity="1" fill="#ff0000"/>
<g opacity="1">
<path d="M25.9645+48.5638C26.157+48.376+25.2684+48.8616+25.0355+48.5651C24.7888+48.2511+24.9144+47.6578+25.0947+47.5175C25.3811+47.2946+28.991+43.1244+29.3983+42.5898C29.6555+42.2522+29.9891+41.4658+30.722+42.0991C31.4001+42.6852+30.4702+43.3345+30.4702+43.3345" opacity="1" fill="#ff0000"/>
<path d="M30.7242+47.9064C30.5832+47.6774+30.8624+48.6508+30.5221+48.8131C30.1616+48.9851+29.6102+48.7326+29.5128+48.5259C29.3581+48.1976+26.0799+43.762+25.6475+43.2475C25.3744+42.9225+24.6802+42.4248+25.4586+41.8484C26.179+41.3151+26.6089+42.3646+26.6089+42.3646" opacity="1" fill="#ff0000"/>
</g>
<path d="M15.7815+29.9328C15.8221+30.097+14.4998+28.9186+13.2006+27.7785C12.3662+27.0463+11.8616+27.2266+12.3101+26.6181C12.6729+26.1261+12.8115+25.458+13.099+25.6677C14.2319+26.4938+13.7942+26.3171+14.3233+26.8122C15.5234+27.9349+15.7189+27.3145+16.0375+27.0049C16.2978+26.752+18.1971+23.8335+18.5434+23.2575C18.7621+22.8937+20.0974+22.1371+19.8962+23.2439C19.6913+24.3713+17.6411+27.2411+17.6411+27.2411" opacity="1" fill="#ff0000"/>
<path d="M15.7815+29.9328C15.8221+30.097+14.4998+28.9186+13.2006+27.7785C12.3662+27.0463+11.8616+27.2266+12.3101+26.6181C12.6729+26.1261+12.8115+25.458+13.099+25.6677C14.2319+26.4938+13.7942+26.3171+14.3233+26.8122C15.5234+27.935+15.7189+27.3145+16.0375+27.0049C16.2978+26.752+18.1971+23.8335+18.5434+23.2575C18.7621+22.8937+20.0974+22.1371+19.8962+23.2439C19.6913+24.3713+17.6411+27.2411+17.6411+27.2411" opacity="1" fill="#ff0000"/>
</g>
<g id="Layer 5" vectornator:layerName="Layer 5" visibility="hidden">
<path d="M16.1811+53.0204L17.0873+51.9891L15.4311+50.2079C15.4311+50.2079+14.8241+49.1347+14.1498+49.8016C13.4213+50.5223+14.2302+50.9619+14.5561+51.2704C14.7341+51.4389+15.4752+52.2683+16.1811+53.0204Z" opacity="1" fill="#ff0000"/>
</g>
<g id="Layer 6" vectornator:layerName="Layer 6" visibility="hidden">
<g opacity="1">
<path d="M15.0001+41.6625C15.1899+41.4719+14.3086+41.9707+14.0713+41.6777C13.82+41.3673+13.9367+40.7723+14.1149+40.6293C14.398+40.4021+17.9454+36.1788+18.3447+35.6382C18.5969+35.2968+18.9188+34.5055+19.661+35.1278C20.3478+35.7037+19.4277+36.3668+19.4277+36.3668" opacity="1" fill="#ff0000"/>
<path d="M19.7496+40.9345C19.6052+40.7076+19.8988+41.6767+19.5609+41.8441C19.203+42.0213+18.648+41.7771+18.5475+41.5719C18.3879+41.2459+15.0442+36.8595+14.6042+36.3515C14.3263+36.0307+13.6247+35.5433+14.3945+34.9554C15.1069+34.4114+15.5523+35.4545+15.5523+35.4545" opacity="1" fill="#ff0000"/>
</g>
<g opacity="1">
<path d="M16.4606+51.7562C16.6205+51.6133+15.8825+51.9828+15.6891+51.7572C15.4842+51.5183+15.5885+51.067+15.7382+50.9603C15.9761+50.7907+18.974+47.6184+19.3123+47.2117C19.5259+46.9548+19.803+46.3566+20.4116+46.8384C20.9749+47.2842+20.2026+47.7782+20.2026+47.7782" opacity="1" fill="#ff0000"/>
<path d="M16.1445+52.255L17.0507+51.2237L15.3945+49.4425C15.3945+49.4425+14.7875+48.3694+14.1132+49.0362C13.3847+49.7569+14.1936+50.1965+14.5195+50.505C14.6975+50.6735+15.4386+51.5029+16.1445+52.255Z" opacity="1" fill="#ff0000"/>
</g>
<g opacity="1">
<path d="M15.7953+30.5292C15.9552+30.3863+15.2173+30.7558+15.0238+30.5302C14.8189+30.2913+14.9232+29.84+15.073+29.7333C15.3108+29.5637+18.3088+26.3914+18.6471+25.9847C18.8607+25.7279+19.1378+25.1296+19.7464+25.6114C20.3096+26.0572+19.5373+26.5512+19.5373+26.5512" opacity="1" fill="#ff0000"/>
<path d="M15.4793+31.028L16.3855+29.9968L14.7293+28.2155C14.7293+28.2155+14.1222+27.1424+13.448+27.8093C12.7194+28.5299+13.5284+28.9695+13.8543+29.278C14.0323+29.4465+14.7734+30.2759+15.4793+31.028Z" opacity="1" fill="#ff0000"/>
</g>
<g opacity="1">
<path d="M15.6139+20.5507C15.7738+20.4078+15.0358+20.7773+14.8424+20.5517C14.6375+20.3128+14.7418+19.8615+14.8915+19.7548C15.1294+19.5852+18.1274+16.4129+18.4656+16.0062C18.6793+15.7494+18.9563+15.1511+19.565+15.6329C20.1282+16.0787+19.3559+16.5727+19.3559+16.5727" opacity="1" fill="#ff0000"/>
<path d="M15.2978+21.0495L16.2041+20.0183L14.5478+18.237C14.5478+18.237+13.9408+17.1639+13.2666+17.8308C12.538+18.5514+13.3469+18.991+13.6728+19.2995C13.8509+19.468+14.5919+20.2974+15.2978+21.0495Z" opacity="1" fill="#ff0000"/>
</g>
</g>
<g id="Layer 6_2" vectornator:layerName="Layer 6">
<g opacity="1">
<path d="M15.0001+41.6625C15.1899+41.4719+14.3086+41.9707+14.0713+41.6777C13.82+41.3673+13.9367+40.7723+14.1149+40.6293C14.398+40.4021+17.9454+36.1788+18.3447+35.6382C18.5969+35.2968+18.9188+34.5055+19.661+35.1278C20.3478+35.7037+19.4277+36.3668+19.4277+36.3668" opacity="1" fill="#ff0000"/>
<path d="M19.7496+40.9345C19.6052+40.7076+19.8988+41.6767+19.5609+41.8441C19.203+42.0213+18.648+41.7771+18.5475+41.5719C18.3879+41.2459+15.0442+36.8595+14.6042+36.3515C14.3263+36.0307+13.6247+35.5433+14.3945+34.9554C15.1069+34.4114+15.5523+35.4545+15.5523+35.4545" opacity="1" fill="#ff0000"/>
</g>
<g opacity="1">
<path d="M16.4606+51.7562C16.6205+51.6133+15.8825+51.9828+15.6891+51.7572C15.4842+51.5183+15.5885+51.067+15.7382+50.9603C15.9761+50.7907+18.974+47.6184+19.3123+47.2117C19.5259+46.9548+19.803+46.3566+20.4116+46.8384C20.9749+47.2842+20.2026+47.7782+20.2026+47.7782" opacity="1" fill="#00ff0d"/>
<path d="M16.1445+52.255L17.0507+51.2237L15.3945+49.4425C15.3945+49.4425+14.7875+48.3694+14.1132+49.0362C13.3847+49.7569+14.1936+50.1965+14.5195+50.505C14.6975+50.6735+15.4386+51.5029+16.1445+52.255Z" opacity="1" fill="#00ff0d"/>
</g>
<g opacity="1">
<path d="M15.7953+30.5292C15.9552+30.3863+15.2173+30.7558+15.0238+30.5302C14.8189+30.2913+14.9232+29.84+15.073+29.7333C15.3108+29.5637+18.3088+26.3914+18.6471+25.9847C18.8607+25.7279+19.1378+25.1296+19.7464+25.6114C20.3096+26.0572+19.5373+26.5512+19.5373+26.5512" opacity="1" fill="#00ff0d"/>
<path d="M15.4793+31.028L16.3855+29.9968L14.7293+28.2155C14.7293+28.2155+14.1222+27.1424+13.448+27.8093C12.7194+28.5299+13.5284+28.9695+13.8543+29.278C14.0323+29.4465+14.7734+30.2759+15.4793+31.028Z" opacity="1" fill="#00ff0d"/>
</g>
<g opacity="1">
<path d="M15.6139+20.5507C15.7738+20.4078+15.0358+20.7773+14.8424+20.5517C14.6375+20.3128+14.7418+19.8615+14.8915+19.7548C15.1294+19.5852+18.1274+16.4129+18.4656+16.0062C18.6793+15.7494+18.9563+15.1511+19.565+15.6329C20.1282+16.0787+19.3559+16.5727+19.3559+16.5727" opacity="1" fill="#00ff11"/>
<path d="M15.2978+21.0495L16.2041+20.0183L14.5478+18.237C14.5478+18.237+13.9408+17.1639+13.2666+17.8308C12.538+18.5514+13.3469+18.991+13.6728+19.2995C13.8509+19.468+14.5919+20.2974+15.2978+21.0495Z" opacity="1" fill="#00ff11"/>
</g>
</g>
</svg>
